<svg id="Layer_1" data-name="Layer 1" xmlns="http://www.w3.org/2000/svg" viewBox="0 0 50 50"><defs><style>.cls-1{fill:#fff;}</style></defs><title>logos</title><path class="cls-1" d="M36.7,6.81a6.4,6.4,0,0,1,12.8,0,6.4,6.4,0,0,1-12.8,0Z"/><path class="cls-1" d="M49.49,25a6.4,6.4,0,1,1-6.37-6.31A6.33,6.33,0,0,1,49.49,25Z"/><path class="cls-1" d="M13.3,43.19A6.34,6.34,0,0,1,6.92,49.5a6.3,6.3,0,1,1,0-12.6A6.35,6.35,0,0,1,13.3,43.19Z"/><path class="cls-1" d="M13.3,6.81A6.35,6.35,0,0,1,6.87,13.1,6.36,6.36,0,0,1,.5,6.78,6.35,6.35,0,0,1,6.91.5,6.35,6.35,0,0,1,13.3,6.81Z"/><path class="cls-1" d="M49.49,43.22a6.4,6.4,0,1,1-6.37-6.32A6.32,6.32,0,0,1,49.49,43.22Z"/><path class="cls-1" d="M13.3,25A6.34,6.34,0,0,1,6.92,31.3a6.3,6.3,0,1,1,0-12.6A6.34,6.34,0,0,1,13.3,25Z"/><path class="cls-1" d="M31.39,43.21A6.4,6.4,0,1,1,25,36.9,6.32,6.32,0,0,1,31.39,43.21Z"/><path class="cls-1" d="M31.39,25A6.4,6.4,0,1,1,25,18.7,6.33,6.33,0,0,1,31.39,25Z"/><path class="cls-1" d="M18.61,6.79a6.4,6.4,0,0,1,12.79,0,6.4,6.4,0,0,1-12.79,0Z"/></svg>