<?xml version='1.0' encoding='iso-8859-1'?>
<svg version="1.1" xmlns="http://www.w3.org/2000/svg" viewBox="0 0 26 26" xmlns:xlink="http://www.w3.org/1999/xlink" width="25px" height="25px" enable-background="new 0 0 26 26">
  <g>
    <path fill="#5ec9f8" d="m25,17h-2c-0.6,0-1,0.4-1,1v2.5c0,0.3-0.2,0.5-0.5,0.5h-17c-0.3,0-0.5-0.2-0.5-0.5v-2.5c0-0.6-0.4-1-1-1h-2c-0.6,0-1,0.4-1,1v6c0,0.6 0.4,1 1,1h24c0.6,0 1-0.4 1-1v-6c0-0.6-0.4-1-1-1z"/>
    <path fill="#5ec9f8" d="m12.3,16.7c0.2,0.2 0.5,0.3 0.7,0.3s0.5-0.1 0.7-0.3l6-6c0.2-0.2 0.3-0.4 0.3-0.7s-0.1-0.5-0.3-0.7l-1.4-1.4c-0.2-0.2-0.4-0.3-0.7-0.3-0.3,0-0.5,0.1-0.7,0.3l-1,1c-0.3,0.3-0.9,0.1-0.9-0.4v-6.5c0-0.6-0.4-1-1-1h-2c-0.6,0-1,0.4-1,1v6.6c0,0.4-0.5,0.7-0.9,0.4l-1-1c-0.2-0.2-0.4-0.3-0.7-0.3-0.3,0-0.5,0.1-0.7,0.3l-1.4,1.4c-0.2,0.2-0.3,0.4-0.3,0.7s0.1,0.5 0.3,0.7l6,5.9z"/>
  </g>
</svg>
