<svg id="Layer_1" data-name="Layer 1" xmlns="http://www.w3.org/2000/svg" viewBox="0 0 504.54 504.54"><defs><style>.cls-1,.cls-2{fill:#fff;}.cls-2{fill-rule:evenodd;}</style></defs><title>New-logo</title><rect class="cls-1" x="121.65" y="212.5" width="44.12" height="133.48"/><rect class="cls-1" x="177.23" y="212.5" width="44.12" height="133.48"/><rect class="cls-1" x="177.23" y="158.55" width="44.12" height="44.12"/><rect class="cls-1" x="232.81" y="212.5" width="44.11" height="133.48"/><rect class="cls-1" x="232.81" y="158.55" width="44.11" height="44.12"/><polygon class="cls-2" points="288.39 212.5 382.89 212.5 288.39 345.99 288.39 212.5"/><rect class="cls-1" x="288.39" y="158.55" width="44.12" height="44.12"/><path class="cls-1" d="M278.22,629.61a252.27,252.27,0,0,1,0-504.54,256.66,256.66,0,0,1,32.13,2c125.5,16,220.14,123.54,220.14,250.24A252.26,252.26,0,0,1,278.22,629.61Zm0-500.54C141.33,129.07,30,240.45,30,377.34S141.33,625.61,278.22,625.61,526.49,514.24,526.49,377.34c0-124.7-93.13-230.57-216.64-246.27A250.47,250.47,0,0,0,278.22,129.07Z" transform="translate(-25.96 -125.07)"/><path class="cls-1" d="M278.22,558.13c-99.68,0-180.78-81.1-180.78-180.79s81.1-180.78,180.78-180.78S459,277.66,459,377.34,377.91,558.13,278.22,558.13Zm0-357.57c-97.47,0-176.78,79.3-176.78,176.78s79.31,176.79,176.78,176.79S455,474.82,455,377.34,375.7,200.56,278.22,200.56Z" transform="translate(-25.96 -125.07)"/><path class="cls-2" d="M51,370.56l20.65,1.1-.12,2.19-20.65-1.1.12-2.19Zm-.28,6,20.68.29,0,2.25L55,387.52l16.23.23,0,2.1-20.68-.29,0-2.25,16.35-8.45-16.23-.23,0-2.1Zm.4,16.77,20.58-2,.56,5.67a11,11,0,0,1,0,3A5.34,5.34,0,0,1,71,402.45a8.66,8.66,0,0,1-3.32,2.29,17.13,17.13,0,0,1-4.83,1.14,18.24,18.24,0,0,1-4.2,0,11.18,11.18,0,0,1-3.11-.83,6.54,6.54,0,0,1-2-1.31,5.59,5.59,0,0,1-1.23-1.86,9.27,9.27,0,0,1-.61-2.61l-.59-5.94Zm2.63,1.94.35,3.51a6.67,6.67,0,0,0,.63,2.51,3.53,3.53,0,0,0,1.21,1.37,7.12,7.12,0,0,0,2.73.95,16.07,16.07,0,0,0,4,0,11.71,11.71,0,0,0,4.89-1.34A4.76,4.76,0,0,0,69.67,400a7,7,0,0,0,.14-2.86l-.34-3.45-15.75,1.56Zm-.94,14.84,20.49-2.84.3,2.17-20.48,2.85-.31-2.18Zm.26,4.48,21.55,1.88.51,2.35L56.28,429.7l-.52-2.44,5.73-3.18L60,417.27l-6.5-.44L53,414.56Zm9.3,2.87L63.52,423l5.25-2.89c1.59-.87,2.92-1.56,4-2.06a34.72,34.72,0,0,1-4.08-.06l-6.32-.51Zm-5.58,13.81.52,2,15.73-4L59.42,441.69l.56,2.18,20-5.11-.53-2-15.72,4,13.58-12.42-.55-2.18-20,5.11Zm6.55,22.43,19.52-6.83.72,2.07L64,455.74l-.72-2.07ZM65,459.56l.86,1.92,14.83-6.6-11.3,14.53.91,2.06,18.9-8.41-.86-1.92-14.83,6.6,11.3-14.53-.91-2L65,459.56Zm12.6,11.64,1.1,1.75a6.69,6.69,0,0,0-2,1.73,4,4,0,0,0-.73,2.19,5.13,5.13,0,0,0,.54,2.56,5,5,0,0,0,1.38,1.79,3.25,3.25,0,0,0,1.77.73,3.5,3.5,0,0,0,1.8-.35,3.05,3.05,0,0,0,1.33-1.14,3.39,3.39,0,0,0,.46-1.87,25.07,25.07,0,0,0-.37-3.09,12.93,12.93,0,0,1-.22-3.43,5.07,5.07,0,0,1,1-2.43A5.55,5.55,0,0,1,85.71,468a6.23,6.23,0,0,1,3-.63,4.68,4.68,0,0,1,2.76,1,6.41,6.41,0,0,1,2,2.42,6.89,6.89,0,0,1,.74,3.25,5.06,5.06,0,0,1-1,2.89,7.43,7.43,0,0,1-2.59,2.14l-1.09-1.81a4.62,4.62,0,0,0,2.17-2.31,3.85,3.85,0,0,0-.35-3,4,4,0,0,0-2.07-2.22,3,3,0,0,0-2.37.13,2.69,2.69,0,0,0-1.38,1.38,8,8,0,0,0,.1,3.61,18.67,18.67,0,0,1,.4,3.87,5.33,5.33,0,0,1-1,2.83,6.11,6.11,0,0,1-2.35,1.89,6.52,6.52,0,0,1-3.13.66,5.4,5.4,0,0,1-3-1,6.46,6.46,0,0,1-2.11-2.52,7.83,7.83,0,0,1-.88-3.74,5.72,5.72,0,0,1,1.19-3.21,8.25,8.25,0,0,1,3-2.42Zm3.19,21L82,494.08l15.52-9.62,2.87,4.64,2.06-1.28-6.89-11.13L93.45,478l2.88,4.64-15.52,9.61Zm5.49,8.67,17.22-11.44,1.22,1.82L87.51,502.71l-1.21-1.83ZM93,510.69l14.54-11-3.3-4.34,1.93-1.47,7.93,10.43-1.94,1.47-3.29-4.34-14.54,11L93,510.69Zm28.72,3.15-9.2,7.61c-2,1.66-3.57,2.51-4.71,2.57a4,4,0,0,1-3.24-1.77,4,4,0,0,1-1-2.28,3.58,3.58,0,0,1,.64-2.31,14.2,14.2,0,0,1,2.81-2.83l9.2-7.61-1.4-1.69-9.21,7.61a17.13,17.13,0,0,0-3.59,3.79,5.37,5.37,0,0,0-.89,3.47,6.63,6.63,0,0,0,1.64,3.56,6.1,6.1,0,0,0,3.35,2.24,6,6,0,0,0,3.59-.33,17.57,17.57,0,0,0,4.18-2.73l9.2-7.6-1.4-1.7Zm-8.27,21.57,12.86-13-3.87-3.84,1.7-1.72,9.3,9.22-1.71,1.72L127.85,524,115,537l-1.56-1.54Zm7,6.91,9.08,8.35,1.64-1.78L123.74,542l4.77-5.19,6.72,6.18,1.64-1.78-6.71-6.18,4.3-4.68,7.17,6.6,1.64-1.78-8.78-8.09-14,15.22Zm21.88,5.94c2-2.76,4.21-4.5,6.54-5.19a7,7,0,0,1,8.86,4.56,8.57,8.57,0,0,1,0,4.74,15,15,0,0,1-2.49,5,14.76,14.76,0,0,1-4.14,3.94,8.14,8.14,0,0,1-4.54,1.33,7,7,0,0,1-4-1.34,6.69,6.69,0,0,1-2.54-3.61,8.71,8.71,0,0,1,0-4.75,14.22,14.22,0,0,1,2.28-4.72Zm1.8,1.38q2.75-3.76,5.28-4.38a5.09,5.09,0,0,1,4.4.75,4.62,4.62,0,0,1,1.77,2.58,6.38,6.38,0,0,1-.11,3.53,12.8,12.8,0,0,1-2.05,4,10.15,10.15,0,0,1-4.91,4,4.88,4.88,0,0,1-6.55-4.76,9.58,9.58,0,0,1,2.17-5.69Zm7.5,17.73,1.88,1.14,4.88-8,6.63,4,1.26-2.08-6.63-4,3.35-5.5,7.66,4.66,1.26-2.07-9.53-5.81-10.76,17.67ZM169.47,578l10-18.11,1.92,1.05-10,18.12L169.47,578Zm5.5,2.76,1.9.9L183.79,567l.93,18.38,2,1,8.82-18.71-1.9-.89-6.92,14.68L185.82,563l-2-1L175,580.76Zm15.17,6.81,7.37-19.32,10.42,4-.86,2.27-8.38-3.19-2.29,6,7.25,2.76-.86,2.27-7.25-2.77-3.35,8.77-2.05-.78Zm15.76-4.69a13.86,13.86,0,0,0-.72,5.19,8.68,8.68,0,0,0,1.43,4.53,6.73,6.73,0,0,0,3.53,2.65,7,7,0,0,0,4.22,0,8.11,8.11,0,0,0,3.9-2.66,14.48,14.48,0,0,0,2.73-5,15,15,0,0,0,.83-5.57,8.49,8.49,0,0,0-1.47-4.5,6.75,6.75,0,0,0-3.49-2.59,6.85,6.85,0,0,0-6.33,1c-2,1.38-3.56,3.69-4.63,7Zm2.13.75a9.62,9.62,0,0,0-.32,6.09,4.88,4.88,0,0,0,7.69,2.52,10.23,10.23,0,0,0,3.45-5.34,13,13,0,0,0,.73-4.39,6.41,6.41,0,0,0-1-3.39,4.66,4.66,0,0,0-2.47-1.91,5.09,5.09,0,0,0-4.42.64q-2.22,1.36-3.68,5.78Zm12.6,13.94,4.28-20.24,7.17,1.52a8,8,0,0,1,3.18,1.24,4.08,4.08,0,0,1,1.39,2.3,7,7,0,0,1,0,3.19,6,6,0,0,1-1.88,3.4,5.35,5.35,0,0,1-3.84,1.14,5.33,5.33,0,0,1,1.08,1.29,13,13,0,0,1,1.2,3.06l1.64,6.11L232.2,600l-1.26-4.66c-.36-1.35-.68-2.39-.95-3.12a5.3,5.3,0,0,0-.8-1.58,3.16,3.16,0,0,0-.86-.75,6,6,0,0,0-1.17-.34l-2.48-.53-1.9,9-2.15-.45Zm4.54-10.85,4.6,1a5.6,5.6,0,0,0,2.37.1,2.64,2.64,0,0,0,1.51-.95,4,4,0,0,0,.81-1.72,3.51,3.51,0,0,0-.33-2.54,3.39,3.39,0,0,0-2.43-1.48L226.59,580l-1.42,6.7Zm11.69,14.43,2.08.35,2.9-17.38,1.81,18.16,1.94.33,7.61-16.27-2.85,17.06,2.08.35,3.4-20.4-2.89-.48-6.29,13.53c-.64,1.37-1.11,2.42-1.42,3.13,0-.7-.14-1.75-.28-3.15l-1.44-15.09-3.24-.54-3.41,20.4Zm17.34,2.46,7.44-20.31,2.41.13,5.61,21-2.48-.13L265.6,598l-7-.38-2.13,6.17-2.32-.13Zm5.21-8.22,5.63.3-1.42-5.82c-.42-1.77-.74-3.23-.95-4.37a33.13,33.13,0,0,1-1.13,3.92l-2.13,6Zm14.3,9.16,2.19,0,.26-18.26,5.45.08,0-2.42-13.1-.19,0,2.43,5.45.07-.25,18.26ZM284,604.3l-1.23-20.64,2.19-.13,1.23,20.64-2.19.13Zm4.39-10.14q-.51-5.11,1.41-8.23a6.82,6.82,0,0,1,5.39-3.45,6.68,6.68,0,0,1,4.25.95,8.47,8.47,0,0,1,3.16,3.51,15,15,0,0,1,1.51,5.42,14.49,14.49,0,0,1-.46,5.7,8.14,8.14,0,0,1-2.49,4,7,7,0,0,1-3.87,1.67,6.7,6.7,0,0,1-4.3-1,8.62,8.62,0,0,1-3.15-3.55,14.05,14.05,0,0,1-1.45-5Zm2.25-.17a9.64,9.64,0,0,0,2.18,5.69,4.88,4.88,0,0,0,8.06-.82,10.28,10.28,0,0,0,1-6.28,13.13,13.13,0,0,0-1.11-4.31,6.4,6.4,0,0,0-2.28-2.7,4.62,4.62,0,0,0-3-.74,5,5,0,0,0-3.78,2.38q-1.47,2.14-1,6.78Zm17.31,8.21-2.85-20.48,2.23-.31,10.83,14.88-2.23-16.08,2.08-.29,2.84,20.49-2.23.31-10.82-14.89L310,601.91l-2.08.29Zm26.42-5.5L329.84,579l-5.28,1.35L324,578l12.69-3.24.6,2.35L332,578.47l4.51,17.69-2.13.54Zm9.5-2.35,11.57-4.27-.84-2.28-9.52,3.52-2.44-6.62,8.56-3.15-.84-2.28-8.56,3.16-2.2-6,9.15-3.38-.84-2.27L336.68,575l7.17,19.4Zm22.52-16.6,2.29-.22a9.83,9.83,0,0,1-.26,5.7,6,6,0,0,1-3.32,3.34,6.63,6.63,0,0,1-4.53.44,8.31,8.31,0,0,1-3.89-2.62,17.12,17.12,0,0,1-3-4.76,14.52,14.52,0,0,1-1.3-5.56,8,8,0,0,1,1.15-4.46,6.92,6.92,0,0,1,3.19-2.72,5.87,5.87,0,0,1,4.46-.18,8.52,8.52,0,0,1,3.9,3.16l-1.72,1.43a6.66,6.66,0,0,0-2.82-2.37,3.82,3.82,0,0,0-2.94.13,4.56,4.56,0,0,0-2.47,2.29,6.07,6.07,0,0,0-.45,3.53,15.32,15.32,0,0,0,1.07,3.86,15.7,15.7,0,0,0,2.37,4,5.63,5.63,0,0,0,2.91,2,4.56,4.56,0,0,0,2.95-.2,4.17,4.17,0,0,0,2.34-2.44,7.38,7.38,0,0,0,0-4.3Zm7.41,4.43,2-1-4.48-8.64,7.59-3.93,4.48,8.64,1.94-1-9.51-18.36-1.94,1,3.92,7.56-7.6,3.93-3.91-7.56-2,1,9.51,18.37Zm14.73-7.62L377.61,557l1.92-1.19L395.45,565l-8.55-13.8,1.79-1.11,10.89,17.58-1.91,1.19-15.93-9.23,8.55,13.8-1.78,1.11ZM396,558.1a14.24,14.24,0,0,0,3.87,3.53,8.76,8.76,0,0,0,4.55,1.38,6.7,6.7,0,0,0,4.18-1.41,7,7,0,0,0,2.43-3.45,8.16,8.16,0,0,0,0-4.73,16.23,16.23,0,0,0-6.72-8.91,8.45,8.45,0,0,0-4.54-1.34,6.75,6.75,0,0,0-4.11,1.41,6.84,6.84,0,0,0-2.79,5.76q0,3.66,3.11,7.76Zm1.83-1.33a9.59,9.59,0,0,0,4.84,3.71,4.88,4.88,0,0,0,6.43-4.92,10.24,10.24,0,0,0-2.45-5.86,12.87,12.87,0,0,0-3.21-3.09,6.38,6.38,0,0,0-3.35-1.12,4.71,4.71,0,0,0-3,1,5.08,5.08,0,0,0-2,4c-.08,1.73.81,3.83,2.69,6.31ZM416.76,555l-13.18-15.94,1.7-1.4,11.63,14.07,6.27-5.18,1.54,1.87-8,6.58Zm2.46-14.83a14.45,14.45,0,0,0,4.33,3,8.71,8.71,0,0,0,4.69.72,6.67,6.67,0,0,0,3.95-2,7,7,0,0,0,1.92-3.75,8.12,8.12,0,0,0-.64-4.69,14.81,14.81,0,0,0-3.27-4.68,15.13,15.13,0,0,0-4.62-3.22,8.49,8.49,0,0,0-4.68-.69,7,7,0,0,0-5.83,8.07c.33,2.42,1.72,4.83,4.15,7.25Zm1.63-1.58a9.54,9.54,0,0,0,5.31,3,4.87,4.87,0,0,0,5.68-5.76,10.15,10.15,0,0,0-3.24-5.46,12.87,12.87,0,0,0-3.6-2.62,6.33,6.33,0,0,0-3.48-.63,4.65,4.65,0,0,0-2.81,1.36,5.09,5.09,0,0,0-1.4,4.24q.24,2.6,3.54,5.87Zm18-15.76-1.79-1.64,4.74-5.16,5.64,5.2a12.24,12.24,0,0,1-.47,4.08,8.28,8.28,0,0,1-1.79,3.14,7.86,7.86,0,0,1-8.77,2,14.42,14.42,0,0,1-4.74-3,15.65,15.65,0,0,1-3.47-4.56,7.93,7.93,0,0,1-.88-4.77,7.6,7.6,0,0,1,2-4.07,7.08,7.08,0,0,1,2.73-1.9,5.62,5.62,0,0,1,3-.3,9.88,9.88,0,0,1,3.34,1.38l-.84,1.91a9.09,9.09,0,0,0-2.45-1,4,4,0,0,0-2.13.19,4.69,4.69,0,0,0-1.94,1.3,5.59,5.59,0,0,0-1.34,2.3,4.94,4.94,0,0,0-.08,2.32,7.46,7.46,0,0,0,.8,2.15,13.45,13.45,0,0,0,2.64,3.29,12.37,12.37,0,0,0,3.93,2.58,5.57,5.57,0,0,0,3.53.24,5.67,5.67,0,0,0,2.76-1.66,6,6,0,0,0,1.37-2.5,7,7,0,0,0,.3-2.51l-2.85-2.62-3.28,3.57Zm15.3-5.92,1.32-1.75-7-5.27L443,497.43l-1.53,2,2.94,6.23c.65,1.38,1.25,2.59,1.81,3.65-1.24-.29-2.51-.53-3.8-.74l-7-1.16-1.59,2.11,13.36,2.07,7,5.27Zm12.26-17.69-20.94-5.5,1.25-2,15,4.29q1.8.51,3.33,1.05c-.83-.82-1.63-1.66-2.41-2.55l-10.4-11.72,1.17-1.89,14.16,16.39-1.2,1.94Zm4-5.9,1.12-2-4.63-4.6,3.36-6.1,6.41,1.35,1.2-2.18-21.36-4.08-1.16,2.11,15.06,15.53Zm-5.15-8.26,2.72-4.94-5.85-1.25c-1.78-.39-3.23-.74-4.36-1.05a35.87,35.87,0,0,1,3.05,2.72l4.44,4.52Zm13.33-6.87-19.08-8,2.19-5.26a11,11,0,0,1,1.41-2.6,5.18,5.18,0,0,1,2.3-1.67,8.72,8.72,0,0,1,4-.45,17,17,0,0,1,4.79,1.3,17.66,17.66,0,0,1,3.69,2,11.41,11.41,0,0,1,2.34,2.2,6.93,6.93,0,0,1,1.15,2.11,5.58,5.58,0,0,1,.2,2.22,8.89,8.89,0,0,1-.7,2.59l-2.3,5.51Zm-1.39-3L478.6,472a6.83,6.83,0,0,0,.63-2.52,3.5,3.5,0,0,0-.42-1.78,7.15,7.15,0,0,0-1.95-2.12,16.06,16.06,0,0,0-3.52-1.94,11.84,11.84,0,0,0-4.94-1.14,4.7,4.7,0,0,0-2.95,1,6.88,6.88,0,0,0-1.48,2.45l-1.34,3.2,14.61,6.09Zm-1.67-15.48a14,14,0,0,0,5.15,1,8.74,8.74,0,0,0,4.59-1.24,6.67,6.67,0,0,0,2.81-3.4,7,7,0,0,0,.24-4.21,8.14,8.14,0,0,0-2.49-4,14.84,14.84,0,0,0-4.89-2.95,15.12,15.12,0,0,0-5.52-1.07,8.46,8.46,0,0,0-4.56,1.26,6.77,6.77,0,0,0-2.75,3.38,6.85,6.85,0,0,0,.68,6.37q1.94,3.1,6.74,4.93Zm.85-2.09q-4.35-1.66-5.62-3.94a5.07,5.07,0,0,1-.44-4.44,4.72,4.72,0,0,1,2-2.39,6.4,6.4,0,0,1,3.43-.83,13.14,13.14,0,0,1,4.36.94,10.24,10.24,0,0,1,5.18,3.67,4.88,4.88,0,0,1-2.87,7.58,9.65,9.65,0,0,1-6.06-.59Zm14.87-11.91-20.06-5.06,1.4-5.52a10.94,10.94,0,0,1,1-2.79,5.39,5.39,0,0,1,2-2,8.74,8.74,0,0,1,3.91-1,17,17,0,0,1,4.92.57,18.26,18.26,0,0,1,3.95,1.45,11.46,11.46,0,0,1,2.64,1.83,6.93,6.93,0,0,1,1.45,1.92,5.54,5.54,0,0,1,.52,2.17,8.89,8.89,0,0,1-.31,2.66l-1.45,5.79ZM489.47,443l.86-3.42a6.77,6.77,0,0,0,.26-2.58,3.64,3.64,0,0,0-.68-1.7,6.86,6.86,0,0,0-2.25-1.81,15.55,15.55,0,0,0-3.76-1.4,11.79,11.79,0,0,0-5-.4,4.81,4.81,0,0,0-2.78,1.43,6.94,6.94,0,0,0-1.1,2.65l-.85,3.36L489.47,443Zm5.45-11.5.48-2.28-5.76-3.05,1.44-6.81,6.53-.57.52-2.44-21.63,2.31L476,421l18.92,10.49Zm-7.32-6.41-5.57-3a33.56,33.56,0,0,0-3.7-1.72q1.76,0,4.47-.27l6-.5-1.16,5.52Zm11.25-10.55-20.6-1.92.69-7.3a7.81,7.81,0,0,1,.86-3.29,4,4,0,0,1,2.13-1.65,6.92,6.92,0,0,1,3.16-.39,5.92,5.92,0,0,1,3.59,1.48,5.32,5.32,0,0,1,1.59,3.67,5.7,5.7,0,0,1,1.14-1.22,14.07,14.07,0,0,1,2.91-1.54l5.88-2.33-.26,2.72-4.49,1.78c-1.3.52-2.29,1-3,1.31a5.6,5.6,0,0,0-1.48,1,3.12,3.12,0,0,0-.64.95,5.06,5.06,0,0,0-.21,1.2l-.24,2.52,9.15.85-.2,2.19Zm-11.3-3.26.43-4.68a5.49,5.49,0,0,0-.17-2.36,2.59,2.59,0,0,0-1.12-1.39,4,4,0,0,0-1.8-.61,3.53,3.53,0,0,0-2.49.62,3.43,3.43,0,0,0-1.18,2.58l-.49,5.21,6.82.63Zm12.65-11.39.13-2.32-6.17-2.13.38-6.95,6.36-1.58.13-2.48-21,5.61-.13,2.41,20.31,7.44ZM492,394.7l-6-2.13a33.13,33.13,0,0,0-3.92-1.13c1.15-.21,2.6-.53,4.37-.95l5.82-1.42Z" transform="translate(-25.96 -125.07)"/><path class="cls-2" d="M59.68,316.2l-.89,3.6-3,.75L56.7,317l3-.76Zm12.25.3L69.58,316l-1.9,7.69-5.15-1.13q-3.81-.84-6.05.36a4.89,4.89,0,0,0-2.43,3.17,3.16,3.16,0,0,0,.69,3.06,4.42,4.42,0,0,0,2.41,1.32,4.57,4.57,0,0,0,3.24-.42,12.2,12.2,0,0,0,4-4.42l2.66.72-.48,2a.8.8,0,0,0,.25.71,1.16,1.16,0,0,0,.58.36c.5.11,1.55-.39,3.15-1.49S73,326,73.05,325.69a.71.71,0,0,0-.6-1L70,324.18l1.89-7.68Zm-9.22,8.56a4.89,4.89,0,0,1-1.71,2.2,3.08,3.08,0,0,1-2.58.66,3,3,0,0,1-1.59-.91,1.59,1.59,0,0,1-.45-1.51,1.65,1.65,0,0,1,1.39-1.38,6.46,6.46,0,0,1,2.19.2l2.75.74Zm-3.65-16.23-2.71,9.32,3-.64,1-3.39,20.11,5.28,2.41-2.26-21.77-5.62,1-3.34-3,.65Zm3-9.49,3-.47-1.19,3.28L85.29,309l-2.56,2.12L63,304.7,61.8,308l-3,.47,3.33-9.15Zm7.11-9.52,2.14-5-3.06.33L62.14,299.6l3.06-.33,2.85-6.73,1,.24,1.73.6c1.34.51,2.33.9,3,1.16s1.19.54,1.73.83.78.51.7.68L75,297.12a9.14,9.14,0,0,0-.87.69c-.12.13-.24.26-.36.37a1.18,1.18,0,0,0,.15,1.05,1.72,1.72,0,0,0,.87.71,4.09,4.09,0,0,0,1.81.05l2.45-.61q2.61-.74,6.06-2L91.71,295l-1-1.69-5,2a34.72,34.72,0,0,1-5.45,1.92,1.08,1.08,0,0,1-.37-.38l-.38-1.42a3,3,0,0,0-.88-1.51,4,4,0,0,0-1.69-1.18l-7.74-2.91Zm27.61-9.1-12.1-6-2.34,4.36c-1.32,2.44-.81,4.21,1.52,5.33a8.4,8.4,0,0,0,3.92.69,42.07,42.07,0,0,0,6.92-1l.42,1.84c-1.71.34-3.28.61-4.72.79a33.87,33.87,0,0,1-3.85.29,12.84,12.84,0,0,1-5.34-1.08,4.53,4.53,0,0,1-2.69-3.07,4.8,4.8,0,0,1,.56-3.36l3.13-5.82-4-1.92-6.77,12.57-3.08.07,9.75-18.11,3.08-.06-1.67,3.09,20.14,9.61-2.87,1.81Zm-15.62-19.8-3.32,5.41,3.08.09,2.28-3.71,18,9.9,2.95-1.61L84.65,260.38l2.26-3.68-3.08-.09-1.91,3.12q-5-1.85-8.2-1.37a6.09,6.09,0,0,0-4.61,2.74,4.46,4.46,0,0,0-.64,3.55,4.37,4.37,0,0,0,2.34,2.79c.24.1.53.19.86.29a4.59,4.59,0,0,0,.72.15,4.33,4.33,0,0,0,1.46,0l.19-1.05q-4-2.16-2.51-4.58A5,5,0,0,1,75,260.06a11,11,0,0,1,6.24.86Zm26.59-11.16a7.46,7.46,0,0,1-.1,2.84,6.36,6.36,0,0,1-1,2.47,8.56,8.56,0,0,1-5.64,3.44,12.53,12.53,0,0,1-6.18-.73,10.68,10.68,0,0,0,1.27-4.27,2.81,2.81,0,0,0-1-2.67,4.23,4.23,0,0,0-1.86-.52l-1.53-.18L87.26,256l-3.06-.37L98,237.4l3,.37L99,240.59l18.38,12.34-3.12,1.37-6.44-4.54ZM93,248.43l4.25-5.61,7.65,5.13a19.11,19.11,0,0,1-.12,5,7.84,7.84,0,0,1-1.38,2.92,3,3,0,0,1-2.22,1.31,4.15,4.15,0,0,1-2.62-.81,14.3,14.3,0,0,0,.79-4,3.17,3.17,0,0,0-1.31-2.67A8.12,8.12,0,0,0,96,249l-3-.54Zm28.13-34.67,3,.78-5.43,5.34,6,5.42,2.15-.72a7.45,7.45,0,0,0,2.26-1.44,6,6,0,0,0,1.39-2.12,13.61,13.61,0,0,0,.72-2.73l2.35,2.11a13.83,13.83,0,0,1-.8,2.38l-1.06,1.5a7.29,7.29,0,0,1-2.6,1.67,8.91,8.91,0,0,1-3.25.52l.07,1.39a6.73,6.73,0,0,1-.1,1.54l-.32,1.11a.43.43,0,0,0,.12.48l2.19.09h3.5l5.41,0,0,1.8q-9.39-.25-12.41-.51c-2.43-.21-3.92-.57-4.48-1.07a1.6,1.6,0,0,1-.52-1,1.21,1.21,0,0,1,.26-1,5.27,5.27,0,0,0,.49-.22,9.69,9.69,0,0,1,1.08-.32l1.53-.58c.13-.14,0-.43-.39-.88a17.9,17.9,0,0,0-1.28-1.38c-.46-.46-1.23-1.17-2.28-2.11l-1.36-1.17-.87-.59-5.32,5.24-3-.78,12.89-12.69Zm7.91-6.25-7.78,6.31,2.87,1,2.83-2.29,13.55,15,3.34-.6-14.72-16.12,2.79-2.26-2.88-1Zm21.55,23.35a12.21,12.21,0,0,1-1,1.87,7.49,7.49,0,0,1-1.61,1.73,4.94,4.94,0,0,1-3.64.84A4.69,4.69,0,0,1,141,234a4,4,0,0,1-1.21-3.35,4.32,4.32,0,0,1,1.6-2.86,6.94,6.94,0,0,1,3.91-1.12q2.72-.16,12.3.39l-.06,1.55Q151,228,149.37,228q-4.4-.12-6.19,1.34a2.31,2.31,0,0,0-.82,1.69,3.41,3.41,0,0,0,1,2.46,2.1,2.1,0,0,0,1.27.72,1.76,1.76,0,0,0,1.39-.47,5.22,5.22,0,0,0,1.16-1.63,8.12,8.12,0,0,0,.78-2l2.68.77Zm6.53-25.38a14.51,14.51,0,0,1-.87,3.45,6.9,6.9,0,0,1-2.19,2.62,8.28,8.28,0,0,1-5.57,1.83,5.41,5.41,0,0,1-3.94-1.82,4,4,0,0,1-.9-1.72l-.07-1.12-3.68,2.76-2.83-1.15,12.3-9.19,2.73,1L150,203.73l-1.48,1.11a8.7,8.7,0,0,0-1.08.92,3,3,0,0,0-.91,1.27,2.86,2.86,0,0,0-.1,1.79,4.25,4.25,0,0,0,.91,2,3,3,0,0,0,2,1.16,3.09,3.09,0,0,0,2.22-.67,5.9,5.9,0,0,0,1.69-2.55c.23-.6.49-1.39.77-2.38s.59-2.17.92-3.54l2.2,2.61Zm-13-9.56,2.82,1.16-15.14,11.31L129,207.24l15.14-11.32Zm7.35-4.22,2.75,1.29-3,2,13.08,17.34-3.4.31-12-16.09-3,2-2.76-1.29,8.38-5.6Zm20.64,1.09,5.83,9.63,3.41,0L170,184l3.19-1.74-2.62-1.53L151.82,191l2.62,1.53,13.11-7.17,3.21,5.21-7.71,4.21a6.81,6.81,0,0,0-2.05,1.49,1,1,0,0,0-.09,1.21c.24.4,1.23,1,3,1.71s2.74,1,3,.86c.5-.27.58-.69.24-1.24l-1.29-2.09c-.13-.28.09-.58.68-.9l5.57-3Zm7.93-16.47,2.52,1.66-3.29,1.56,10.15,19-3.4-.18-9.3-17.6-3.33,1.58-2.52-1.67,9.17-4.34Zm34.9,3.06-1.55,1.22a9.62,9.62,0,0,1-1.92.94,7.55,7.55,0,0,1-4.56-.47c-2.18-.75-3.5-1.75-3.94-3l-2.48-6.91-4.27,1.36-2.25-2,20.75-6.61,2.25,2L213.49,167l7.22,20.14-3.38-.61L215,179.38Zm-4.21-11.47-7.49,2.38,2.52,7q1.17,3.28,3.61,2.52a7.82,7.82,0,0,0,2.24-1.3,12.1,12.1,0,0,0,1.14-1,10.67,10.67,0,0,0,1-1.12l-3-8.52ZM216.6,181l-.64-2.15-9.69,11.05,2.57,1.17L216.6,181Zm9.77-19.32-10,2.18,2,2.18,3.63-.79,4.6,19.18,3.27.93-5.08-20.72,3.59-.78-2-2.18Zm-12-1.71,3.4,1.89,4.21,2.59,2.18-.66-.37-.48-3.82-5.86a37.15,37.15,0,0,0-4.4-5.67,6.72,6.72,0,0,0-2.36-1.41,3.66,3.66,0,0,0-1.69-.22c-.38.09-.51.35-.4.79l.92,2.14.6,1.65a7.91,7.91,0,0,1,2.54-.27,3,3,0,0,1,1.57.9A42.45,42.45,0,0,1,220,159.6l2.77,4-.57.12L219.91,162c-.89-.65-1.93-1.4-3.13-2.23a31.7,31.7,0,0,0-4.18-2.53,14.86,14.86,0,0,0-2.28-.89,4.38,4.38,0,0,0-2.1-.06q-.75.21-.63.66a10.39,10.39,0,0,0,1.15,1.67c.53.66.88,1.12,1.06,1.36a4.65,4.65,0,0,0,.58.67,3.83,3.83,0,0,1,1-.68,2.59,2.59,0,0,1,.94-.44,3.76,3.76,0,0,1,2,.44Zm38.51-3.24,1.91,2.27-3.62.63,4.07,20.91L252,179.45l-.65-3.83a12.21,12.21,0,0,1-2.88,2.9,10,10,0,0,1-4.18,2.07,8,8,0,0,1-5-.91,5,5,0,0,1-3-3.47,3.44,3.44,0,0,1,.08-1.72,3.26,3.26,0,0,1,1.06-1.53,7.51,7.51,0,0,1-3-1.48,5.23,5.23,0,0,1-2.18-3.1,2.18,2.18,0,0,1,.22-1.66,3.44,3.44,0,0,1,2.29-1.14l5.67-1-.59-3-11.49,2-1.91-2.27,26.45-4.56Zm-10.19,4.36.91,4.67a.8.8,0,0,1-.74,1.05l-5.14.89a4.67,4.67,0,0,0-2.22.75c-.35.24-.45.73-.31,1.44a2.22,2.22,0,0,0,1.43,1.52,5.39,5.39,0,0,0,2.81.26l2-.59,2.27-.48a1.68,1.68,0,0,1,1.38.62,2.82,2.82,0,0,1,.88,1.36.76.76,0,0,1-.19.58l-.48.27c-.45.08-.9.14-1.37.19a10.93,10.93,0,0,1-1.4.06l-1.48,0a2.44,2.44,0,0,0-1.79,1.19,3.31,3.31,0,0,0-.25,2,2.64,2.64,0,0,0,1.14,1.8,3,3,0,0,0,2,.31A10.31,10.31,0,0,0,247,176.5a19.94,19.94,0,0,0,3.68-4.12l-2.39-12.29-5.62,1Zm22.07-4.65-10.24.74,1.66,2.45,3.72-.27,1.49,19.61,3.08,1.38-1.72-21.2,3.67-.26-1.66-2.45Zm-9.21-5.75,2.9,3,3.37,3.74.95-.53-4.43-5.26-3-3.34a9.37,9.37,0,0,0-2.55-1.94,5.13,5.13,0,0,0-2.33-.57l-1.54.23c-.55.13-.81.29-.81.47l1,1.85a9,9,0,0,0,1.22,1.83l1.39-.45a3.39,3.39,0,0,1,1-.25,3.07,3.07,0,0,1,1.52.39,6.26,6.26,0,0,1,1.29.85Zm15.74,5.74-.91-1.21a5.17,5.17,0,0,1-.71-2.44,4.89,4.89,0,0,1,1.25-3.32,6.16,6.16,0,0,1,4.92-2.19,14.52,14.52,0,0,1,5.54,1.25,23.38,23.38,0,0,1,5.75,3.17l0,1.65a23.75,23.75,0,0,0-5.15-2.78,12.32,12.32,0,0,0-4.56-1.06,5.35,5.35,0,0,0-3.76,1.55,4.23,4.23,0,0,0-1.43,3.16,4.7,4.7,0,0,0,.51,2.18l4.21-.12,1.53,2.51-4.5.13.67,21.25-3-1.51L271.14,159l-4.55.13-1.53-2.52,6.2-.17Zm16.29,2.94,5.32.15-1.37-2.59L277,156.49l1.37,2.6,6.25.17-.22,6.93a.6.6,0,0,1-.3.45l-2.23-.06a1,1,0,0,0-.54.35.94.94,0,0,0-.31.63c0,.67.53,1.56,1.66,2.69l1.69,1.69a2.59,2.59,0,0,0,1.1.62,1.54,1.54,0,0,0,1.2-.46,1.84,1.84,0,0,0,.5-1.22l.36-11.54Zm12.81-1.66,1.25,2.65-3.68-.26-1.71,21.19-2.82-1.8,1.68-19.6-3.72-.26-1.24-2.66,10.24.74Zm20.33,5.25-1.49,7.72a16.15,16.15,0,0,1,2.67-1.12,6.48,6.48,0,0,1,1.07-.19,4.32,4.32,0,0,1,1.13.06,4.68,4.68,0,0,1,2.93,2.13,7.31,7.31,0,0,1,1,5.73,7.63,7.63,0,0,1-1.11,2.64,25.94,25.94,0,0,1-2.6,3l-2-2.48a17.17,17.17,0,0,0,2.67-3,7.67,7.67,0,0,0,1.36-2.81,2.09,2.09,0,0,0-.39-1.66,2.32,2.32,0,0,0-1.57-.94,5.44,5.44,0,0,0-2.43.36,21.18,21.18,0,0,0-3.29,1.43l-1.94,10L314,181.76l1.48-6.61a24.27,24.27,0,0,1-3.51,1.07,6.91,6.91,0,0,1-1,.1,6.61,6.61,0,0,1-1.11-.1,6.79,6.79,0,0,1-4.38-2.7,5.9,5.9,0,0,1-1.19-4.89,4.67,4.67,0,0,1,1.51-2.48,5.7,5.7,0,0,1,4.9-1.1,9.94,9.94,0,0,1,2.11.55,3.09,3.09,0,0,1,1.47,1c.27.3.47.53.6.71a9.49,9.49,0,0,1,.56.93l.88,1.54,1.53-7.39-14.77-2.54-.94-2.76,31.69,5.46.94,2.76-14.06-2.42Zm-14.57,7.55a2.6,2.6,0,0,0,.48,2.12,3.47,3.47,0,0,0,2.1,1.11,7.24,7.24,0,0,0,3.14-.2,19.87,19.87,0,0,0,4.21-1.64,9.56,9.56,0,0,0-1-1.68,6.55,6.55,0,0,0-1.2-1.21,6.43,6.43,0,0,0-3.09-1.32,4.62,4.62,0,0,0-2.92.45,3.18,3.18,0,0,0-1.72,2.37Zm30.58-6.35-6.41-1.65.69,2.83,4.39,1.13-5.61,18.94,2.4,2.27,6-20.5,4.34,1.12-.68-2.83-3.69-.95q.64-5-.67-7.81a6,6,0,0,0-4-3.51,5.31,5.31,0,0,0-3.81.32,4.41,4.41,0,0,0-2.28,2.84,6.8,6.8,0,0,0-.07.86,3.32,3.32,0,0,0,0,.69,3.85,3.85,0,0,0,.37,1.33l1.13-.09q1.21-4.19,4.07-3.45a4.89,4.89,0,0,1,3.12,2.56,9.34,9.34,0,0,1,.7,5.9Zm36.94,13,.21,2.89-7.16-3-3.41,7.15,1.44,1.66a7.29,7.29,0,0,0,2.19,1.53,6.74,6.74,0,0,0,2.6.52,15.76,15.76,0,0,0,3-.27l-1.33,2.79a15.9,15.9,0,0,1-2.64.08l-1.87-.43a7.43,7.43,0,0,1-2.54-1.75,7.67,7.67,0,0,1-1.6-2.71l-1.37.53a8.52,8.52,0,0,1-1.58.43l-1.21.09a.47.47,0,0,0-.45.26c.25.74.47,1.4.65,2,0,.13.45,1.16,1.18,3.1l1.86,4.79-1.79.64q-2.88-8.41-3.64-11.19c-.61-2.22-.75-3.66-.43-4.33a1.75,1.75,0,0,1,.8-.79,1.4,1.4,0,0,1,1.11-.1l.39.36a8.92,8.92,0,0,1,.68.84l1.09,1.16c.18.08.43-.13.76-.63s.64-1,.95-1.6.75-1.48,1.35-2.73l.71-1.6.3-1-7-3-.21-2.89,17,7.19Zm8.47,4L373,176.73l.07,2.9,3.32,1.58-9.53,17.5,1.87,2.68,10.21-19,3.29,1.57-.07-2.9Zm2.66-5.88-4.17,1.28-1.38-4,4.17-1.28,1.38,4Zm14,14.48-.1,2.9-6.8-3.7-4.16,6.8,1.25,1.79a7.21,7.21,0,0,0,2,1.73,6.79,6.79,0,0,0,2.52.76,15.63,15.63,0,0,0,3,0l-1.63,2.64a14.66,14.66,0,0,1-2.63-.17l-1.81-.61a7.31,7.31,0,0,1-2.34-2,7.64,7.64,0,0,1-1.3-2.84l-1.42.39a7.51,7.51,0,0,1-1.62.27l-1.21,0a.47.47,0,0,0-.47.22c.16.76.31,1.43.43,2,0,.13.32,1.19.84,3.2l1.34,4.94-1.86.47q-2-8.66-2.41-11.48c-.37-2.27-.35-3.72,0-4.35a1.74,1.74,0,0,1,.88-.71,1.37,1.37,0,0,1,1.12,0l.35.4a5.93,5.93,0,0,1,.59.9l1,1.26c.17.09.44-.09.82-.56a18.24,18.24,0,0,0,1.11-1.5c.37-.54.92-1.4,1.64-2.58l.88-1.53.41-.94-6.67-3.62.1-2.9,16.15,8.78Zm8.3,23.34,2.28-3a20.63,20.63,0,0,1-5.82.7,8.4,8.4,0,0,1-4.42-1.24,4.12,4.12,0,0,1-1.69-1.86,3,3,0,0,1,.46-2.33,19.54,19.54,0,0,0,5.86.12,6.5,6.5,0,0,0,4.31-2.48,4.6,4.6,0,0,0,.87-4.12A6.94,6.94,0,0,0,406,194.4a4.36,4.36,0,0,0-3.84-.5,5.26,5.26,0,0,0-2.8,1.82,3.66,3.66,0,0,0-.55,3.19,10.84,10.84,0,0,0,2.34,4.18,6.56,6.56,0,0,1-1.89-.1l-2.15-.38-1.55-.31a3,3,0,0,0-.42,0,2.73,2.73,0,0,0-.41,0c-.18.29-.06,1.42.36,3.38a14.44,14.44,0,0,0,1.06,3.07,9.8,9.8,0,0,0,3.21,3.38,7.44,7.44,0,0,0,3.69,1.19,19.73,19.73,0,0,0,4-.28Zm-4.2-10.16A6.23,6.23,0,0,1,401.4,200a3,3,0,0,1,.51-2.48,2.82,2.82,0,0,1,2-1.07,3.11,3.11,0,0,1,2.19.44,1.93,1.93,0,0,1,.88,1.63,3.56,3.56,0,0,1-.87,2.3,6,6,0,0,1-.68.74c-.25.23-.52.45-.81.67a3.65,3.65,0,0,1-1.72.63Zm17,2.08-.52,2.86-2.91-2.13L402.6,222.47l-1.3-3L414.2,204l-2.94-2.15.52-2.86,8.11,5.94Zm7.62,6.18-.68,2.83-2.78-2.28-14.8,16.05-1.12-3,13.76-14.78-2.81-2.31.68-2.82,7.75,6.34Zm3.88,18.68-8.21,8,1,3.08,15.61-15.36,2.66,2.39.83-2.79L427.55,211l-.83,2.8,11,9.87L433.26,228l-6.44-5.8a7,7,0,0,0-2.09-1.45,1.16,1.16,0,0,0-1.26.26,7.21,7.21,0,0,0-.92,3.14c-.28,1.77-.29,2.78,0,3,.42.38.86.33,1.33-.13l1.78-1.75c.24-.19.61-.07,1.1.37l4.66,4.19Zm20.26,30.42a17.76,17.76,0,0,1-3.91-1.43,8.17,8.17,0,0,1-2.82-2.33,6.67,6.67,0,0,1-1.21-4.8,6.22,6.22,0,0,1,2.74-4.94,5.44,5.44,0,0,1,3.91-.89,7.12,7.12,0,0,1,4.53,3.05l.79,1c.17.38.36.76.58,1.16a4.12,4.12,0,0,1,.42,1.65,6.18,6.18,0,0,1-.08,1.65,20.13,20.13,0,0,1-.85,2.84l6.52-4.28-10.19-13.38,1.36-2.6,14,18.42-1.36,2.6L464,255.19l-18.35,12.38-.37-3.23,6.41-4.1Zm-4.54-10.91a4,4,0,0,0-1.85,2.43,3.32,3.32,0,0,0,.77,2.73,8.25,8.25,0,0,0,3.4,2.28,17.32,17.32,0,0,0,5.17,1.31,15.62,15.62,0,0,0,0-3.41,7.63,7.63,0,0,0-1.32-3.54,5.54,5.54,0,0,0-3.15-2.22,3.67,3.67,0,0,0-3,.42Zm12.44,18.38L458,267a22.82,22.82,0,0,0-3,7.94,11.62,11.62,0,0,0,1,7.63,6.71,6.71,0,0,0,3.48,3.22,5.35,5.35,0,0,0,4.46-.14,4.82,4.82,0,0,0,1.65-1.57A8.88,8.88,0,0,0,467,281.6a3.43,3.43,0,0,0-.14-2.79L465,276.3c-.25-.32-.56-.72-.92-1.2a8.52,8.52,0,0,1-.8-1.2,1.91,1.91,0,0,1-.31-1.49c.17-.49.78-1,1.82-1.47a2.33,2.33,0,0,1,1.63-.24,2.4,2.4,0,0,1,1.34,1.33l3.31,6.2a.84.84,0,0,0,.62.44,1.07,1.07,0,0,0,.72-.06l4.59-2.17,2.87,5.38,1.78-2.37-12-22.5-1.77,2.37L475.71,274l-3.07,1.46-3.05-5.71A3.33,3.33,0,0,0,467.4,268a3.84,3.84,0,0,0-2.69.21A6.33,6.33,0,0,0,462,271a7.7,7.7,0,0,0-1.12,2.88,4,4,0,0,0,.51,2.16l2.35,3.17q.51.67.87,1.23c.23.36.41.67.54.91a1.35,1.35,0,0,1-.1,1.07,2.11,2.11,0,0,1-1,.89,3.82,3.82,0,0,1-3.11,0,5.39,5.39,0,0,1-2.83-2.66,10.1,10.1,0,0,1-1.38-5.53,18.74,18.74,0,0,1,2.81-7.41ZM485.65,288l-1.87,2.3-1.52-3.16-20.57,8.76.32-3.19,19.07-8-1.54-3.2,1.88-2.3,4.23,8.81Zm2.63-10-2,3.58-2.59,4.26.86.66,3.74-5.71,2.32-3.77a8.38,8.38,0,0,0,1.07-2.92,4.38,4.38,0,0,0-.22-2.25l-.75-1.29c-.33-.44-.58-.62-.76-.55l-1.5,1.49a9.39,9.39,0,0,0-1.42,1.71l.92,1.08a2.27,2.27,0,0,1,.73,2.28,5.63,5.63,0,0,1-.42,1.43ZM484.79,309l5.28-1.69,1.29,3.59,2.1-2.12-7-19.26-2.1,2.12,4.73,13.08-3.49,1.12-1.09-3a16.47,16.47,0,0,0-1.68-3.51,7.28,7.28,0,0,0-1.91-2,4.78,4.78,0,0,0-4-.29,9.47,9.47,0,0,0-5.78,5.37c-1.17,2.52-1.43,4.7-.77,6.51l.48,1.19.62.86-2.71,2.56-2.33,2.34,1.4,1.19a26.09,26.09,0,0,1,2.5-2.73l2.36-2.25a3,3,0,0,0,1.63.68,3.45,3.45,0,0,0,1.37-.15c.74-.24,1.22-1,1.47-2.25a5.94,5.94,0,0,0,.13-2.55,1.49,1.49,0,0,0-.79-.83,1.52,1.52,0,0,0-.94,0,3.41,3.41,0,0,0-1.1.64l-1,1.15a4.55,4.55,0,0,1-.78-1.44,5.74,5.74,0,0,1,.14-4.57,5,5,0,0,1,3.12-2.83,4.81,4.81,0,0,1,2-.25,5,5,0,0,1,1.68.5,4.69,4.69,0,0,1,1.75,2.57c.35.69.72,1.51,1.1,2.47s.78,2,1.21,3.2c.21.58.57.78,1.09.61Zm8.88,12-8.12,1.77a4.14,4.14,0,0,1-2.1-.06,3.3,3.3,0,0,1-1.63-.77l-1.18-1a1.15,1.15,0,0,0-.53-.12,33.1,33.1,0,0,0-3.32,4.51l-2.9,4.38-1.81-.87L476,323.3q2.07-2.9,3.77-4.89l1.64-1.81a3.91,3.91,0,0,1,1.52-.94,1.93,1.93,0,0,1,1.15.12,1.3,1.3,0,0,1,.76.78c0,.16,0,.33-.08.5a6.52,6.52,0,0,1-.29,1l-.33,1.52c.05.18.37.24,1,.18s1.26-.14,1.93-.25,1.71-.33,3.13-.64l1.78-.43,1-.36L491.24,311l2.32-1.9,3.73,15.2-2.32,1.9-1.3-5.29Zm5.53,12.9-1.85-9.52-2.41,1.81.67,3.45L475.05,333l-1.13,3,22.21-3.83.66,3.41Z" transform="translate(-25.96 -125.07)"/><polygon class="cls-2" points="35.34 216.48 37.68 223.55 45.31 223.53 39.13 227.89 41.5 234.94 35.34 230.57 29.17 234.94 31.55 227.89 25.37 223.53 32.99 223.55 35.34 216.48"/><polygon class="cls-2" points="468.07 228.05 470.42 235.12 478.04 235.11 471.86 239.46 474.24 246.52 468.07 242.15 461.91 246.52 464.28 239.46 458.1 235.11 465.73 235.12 468.07 228.05"/></svg>