<svg xmlns="http://www.w3.org/2000/svg" viewBox="0 0 588 252"><defs><style>.cls-1{isolation:isolate;}.cls-2{fill:#662d91;opacity:0.5;mix-blend-mode:screen;}</style></defs><title>planet-elements</title><g class="cls-1"><g id="Layer_1" data-name="Layer 1"><path class="cls-2" d="M81.5,49.5c-44.51,28.74-60,57.17-64.44,65.82-7.6,15-25.18,48.51-11.68,80.24,10.3,24.22,34.25,40.3,59.29,48.4,69.92,22.6,144.82-7.82,211.74-38.18s141-61.91,211.52-41.43c2.9.84,19.67,9.37,43.15,11.29,15.18,1.24,33.41,3.16,45.42-8.14,10.26-9.66,10.94-24,11-26,1.06-32.29-42.4-58.59-77-79-24.56-14.49-61.29-35.76-118-50-25.2-6.33-88.71-19.62-170-9C184.72,8.44,134,15.62,81.5,49.5Z"/></g></g></svg>