<svg id="Layer_1" data-name="Layer 1" xmlns="http://www.w3.org/2000/svg" viewBox="0 0 658 530"><defs><style>.cls-1{fill:#4c81b5;}.cls-2{fill:#004d92;}.cls-2,.cls-3{opacity:0.5;}.cls-3{fill:#003668;}.cls-4{fill:#22b573;}.cls-5{fill:#29abe2;}.cls-6{fill:#444492;}.cls-7{fill:none;stroke:#29abe2;stroke-miterlimit:10;stroke-width:0.75px;}</style></defs><title>planet-elements</title><circle class="cls-1" cx="342.62" cy="264.74" r="265"/><path class="cls-2" d="M397.38,524a264.22,264.22,0,0,1-202.91-39.55C73.12,402.63,41.08,237.94,122.9,116.59,188.18,19.77,306.21-20.19,412.9,9.15c-17.23,9-36.5,14.7-53.08,25-22.29,13.87-39.66,43.94-25.25,65.9,3.26,5,7.84,9,11,14,10.79,17.33,1,40.62-13.36,55.12-17.8,17.94-24.66,20.81-45.6,40.72-25.44,24.21-37.45,50.4-42.18,61-17.89,40-17.28,75.68-16.84,91.16.63,22.6,1.3,46.31,14.35,72.44,24.61,49.28,73.15,70.27,94.07,76.07C356.11,516.14,376.92,519.64,397.38,524Z"/><path class="cls-3" d="M238.85,507.55A265.73,265.73,0,0,1,195,483.63C73.68,401.8,41.64,237.11,123.46,115.76A263.94,263.94,0,0,1,260.62,12.08c-27.1,33.86-52.77,68.83-73.61,106.8-28.19,51.33-47.33,108.85-46.41,167.4.94,59,22.34,116.48,54.74,165.75A441.9,441.9,0,0,0,238.85,507.55Z"/><path class="cls-4" d="M579.38,381.91q-12.71-3.32-27.37-7.69c-60.31-17.94-138.29-46.94-219.55-81.64-23.62-10.08-46.69-20.3-68.88-30.48l-1-.45c-53.81-24.72-102.41-49.24-141-71.21q-16.12-9.19-29.17-17.38c.59-1.52,1.2-3,1.81-4.53a1,1,0,0,0,.08-.18c.18.12.37.23.55.36h0c8.25,5.18,17.9,11,29.19,17.4,38.23,21.79,86.39,46.1,139.73,70.63l.93.42c22.43,10.3,45.75,20.64,69.64,30.83,81.1,34.64,158.88,63.57,219,81.46,9.4,2.79,17.88,5.18,25.54,7.2l2.51.65c-.1.25-.21.48-.32.72C580.59,379.31,580,380.62,579.38,381.91Z"/><path class="cls-4" d="M570.72,398.8q-13.38-3.45-28.92-8.09c-60.41-18-138.48-47-219.83-81.73-21.37-9.13-42.29-18.36-62.53-27.58l-1.05-.48C202,255.2,151,229.57,110.9,206.71q-13.59-7.76-25-14.79,1.5-4.9,3.22-9.78c8.47,5.27,18.39,11.16,30,17.73,38.85,22,87.65,46.44,141.39,71,.35.16.69.32,1.05.47,20.81,9.51,42.34,19,64.34,28.42,79.23,33.83,155.64,62.35,215.18,80.28,13.19,4,24.61,7.14,34.49,9.66C574,392.76,572.39,395.8,570.72,398.8Z"/><path class="cls-4" d="M559.37,417.29q-13.75-3.54-29.87-8.34C469.09,391,391,362,309.67,327.22c-18.65-8-37-16-54.78-24.07l-1.06-.47C194.36,275.78,140.55,248.86,98.6,225q-9.81-5.61-18.5-10.82,1.09-5.13,2.4-10.23c7.14,4.33,15.2,9.06,24.31,14.21,40.71,23,92.32,48.78,149.12,74.54l1.06.47c18.39,8.34,37.32,16.67,56.6,24.9,79.23,33.83,155.64,62.35,215.18,80.28,14,4.22,26,7.53,36.31,10.11C563.24,411.39,561.34,414.36,559.37,417.29Z"/><path class="cls-5" d="M647.4,401.19c1.25-2.91,1-6.1-.7-9.71a26.16,26.16,0,0,0-2.86-4.63c-3.33-4.46-8.63-9.51-16-15.35a383.55,383.55,0,0,0-35.15-24c-1,3.28-2.08,6.53-3.22,9.78,22.22,13.85,34.29,23.35,40.87,29.62a55.88,55.88,0,0,1,5,5.38c2.45,3.07,2.76,4.6,2.8,5-.46.36-2.95,1.89-12.22,1.55a143.75,143.75,0,0,1-17.65-2h0c-8.39-1.38-19.09-3.61-32.72-7.1h0c-9.88-2.52-21.3-5.69-34.49-9.66-59.54-17.93-136-46.45-215.18-80.28-22-9.39-43.53-18.91-64.34-28.42-.36-.15-.7-.31-1.05-.47-53.74-24.58-102.54-49.06-141.39-71-11.63-6.57-21.55-12.46-30-17.73-.23-.13-.43-.27-.65-.4A368.43,368.43,0,0,1,57.12,160.3,106.73,106.73,0,0,1,44,148.53c-4-4.38-4.38-6.43-4.44-6.91.41-.32,2.33-1.51,8.84-1.59,2,0,4.47,0,7.44.29,9.42.75,24.13,3.14,47,9l.34.08q2.33-4.58,4.87-9.08l-.24-.06a385.83,385.83,0,0,0-42.47-9,108.45,108.45,0,0,0-18-1.26,41.14,41.14,0,0,0-5.27.45c-6.3.95-10.09,3.33-11.74,7.21-1.37,3.19-1,6.73,1.25,10.8a43.86,43.86,0,0,0,7.9,9.83,126.59,126.59,0,0,0,10.42,9.05q7.48,5.91,17.63,12.76,8,5.38,17.62,11.33l.74.47q11.43,7,25,14.79C151,229.57,202,255.2,258.39,280.92l1.05.48C279.68,290.62,300.6,299.85,322,309c81.35,34.74,159.42,63.76,219.83,81.73q15.53,4.64,28.92,8.09a379,379,0,0,0,41.69,8.78c3.25.46,6.25.79,9,1h0a70.4,70.4,0,0,0,12.4.05c6.36-.65,10.47-2.56,12.64-5.78A10.63,10.63,0,0,0,647.4,401.19Z"/><path class="cls-5" d="M635.1,419.43c1.36-3.19,1-6.74-1.25-10.8a43.86,43.86,0,0,0-7.9-9.83A126.12,126.12,0,0,0,615.87,390l-.34-.27q-3.94-3.12-8.63-6.5-9.4-6.78-21.76-14.57-1.73,4.33-3.65,8.61l-2.51-.65,2.19,1.37q5.9,3.75,10.79,7.05c6.67,4.49,12,8.39,16.33,11.75h0a106.38,106.38,0,0,1,13.14,11.77h0c3.95,4.38,4.37,6.43,4.42,6.91-.89.71-9.5,5.83-60.79-7.08-10.29-2.58-22.3-5.89-36.31-10.11C469.23,380.37,392.82,351.85,313.59,318c-19.28-8.23-38.21-16.56-56.6-24.9l-1.06-.47c-56.8-25.76-108.41-51.53-149.12-74.54C97.7,213,89.64,208.23,82.5,203.9l-.88-.54c-51.79-31.59-54.28-42.31-54.38-43.5.46-.37,3-1.89,12.22-1.55a142.31,142.31,0,0,1,17.66,2c6.23,1,13.73,2.51,22.78,4.64h0q6.38,1.49,13.8,3.44l.57.14c.22.06.43.11.63.18-.18-.13-.37-.24-.55-.36q1.9-4.57,4-9.09l-.46-.12q-14.67-3.88-26.75-6.4-5.84-1.22-11-2.11c-2.47-.43-4.84-.8-7.09-1.11-3.26-.45-6.25-.78-9-1a68.62,68.62,0,0,0-12.41-.05c-7.4.75-11.74,3.2-13.55,7.44-3.14,7.34,2.9,16.5,19.57,29.68q7.49,5.91,17.63,12.76,10.54,7.11,23.89,15.16l1,.61q8.69,5.22,18.5,10.82c42,23.91,95.76,50.83,155.23,77.73l1.06.47c17.81,8.05,36.13,16.1,54.78,24.07C391,362,469.09,391,529.5,409q16.1,4.8,29.87,8.34a376.11,376.11,0,0,0,40.74,8.53c19.38,2.7,30,1.25,34.09-4.73A11.48,11.48,0,0,0,635.1,419.43Z"/><path class="cls-5" d="M654.61,386.11c2.58-6.05-3.4-14.54-18.83-26.74-9.68-7.65-22.78-16.5-39.09-26.43-.41,1.7-.85,3.38-1.3,5.07,7.68,4.69,14.29,8.93,20,12.77C652,375.46,650.43,383.16,650,384.15c-.18.44-1.19,2-6.16,2.7a61,61,0,0,1-13.51,0,210.37,210.37,0,0,1-23.43-3.62c-7.2-1.46-15.6-3.4-25.41-6l-2.51-.65c-7.66-2-16.14-4.41-25.54-7.2-60.14-17.89-137.92-46.82-219-81.46-23.89-10.19-47.21-20.53-69.64-30.83l-.93-.42c-53.34-24.53-101.5-48.84-139.73-70.63-11.29-6.44-20.94-12.22-29.19-17.4h0c-.18-.13-.37-.24-.55-.36s-.33-.21-.5-.3c-9.26-5.85-16.72-10.92-22.73-15.31a167,167,0,0,1-15.32-12.42c-5.13-4.83-7.47-8.13-8.49-10.3s-.74-3.18-.61-3.5c.47-1.1,6-9.08,65.61,6.11l.13,0c.91-1.49,1.82-3,2.76-4.45h-.08a372.11,372.11,0,0,0-40.68-8.53C55,117,44.69,118.51,42.11,124.56a8.15,8.15,0,0,0-.06,5.91c.89,2.78,3,5.95,6.32,9.56a108.85,108.85,0,0,0,11.72,10.6l.84.68q7.41,5.87,17.48,12.64l1.49,1h0c3.75,2.51,7.74,5.1,12,7.77l.55.34q13,8.17,29.17,17.38c38.56,22,87.16,46.49,141,71.21l1,.45c22.19,10.18,45.26,20.4,68.88,30.48,81.26,34.7,159.24,63.7,219.55,81.64q14.67,4.36,27.37,7.69,6.55,1.71,12.58,3.15c8.85,2.11,16.84,3.77,23.91,5,2.22.38,4.36.71,6.4,1a128.25,128.25,0,0,0,13.1,1.24,44.94,44.94,0,0,0,11.33-.77c3.52-.8,5.92-2.19,7.26-4.18A6.81,6.81,0,0,0,654.61,386.11Z"/><path class="cls-6" d="M392,195.36c-.61,3.71.6,7.72,1,11.59a10.42,10.42,0,0,1,.38,2.53c-1.19,7,1.09,13.17,4.9,18.78,3.36,5,6.61,10.21,11,14.2s9.65,6.53,14.78,9.31a58.55,58.55,0,0,0,30.52,7.11,11.74,11.74,0,0,0,4.82-1.26c5.05-2.58,10.15-5.12,15-8.12,8.19-5.11,12.81-13.09,16.27-21.84-1.65,2.86-3.12,5.82-5,8.55-3.82,5.67-8.51,10.67-14.75,13.5-4.12,1.87-8.82,2.43-13.27,3.57-.18,0-.38.07-.56.12-9.39,3-12.88-.34-18-7.28s-5.57-6.37-11.22-11c.87-2.24,1.86-4.52,2.62-6.89a3,3,0,0,0-.35-2.46c-2.21-2.57-1.78-5.37-.8-8.09,1.56-4.31,3.68-8.43,4.94-12.81.74-2.62.28-5.57.4-8.38a31.9,31.9,0,0,1,.33-4.26c.26-1.42,1-2.78,1.1-4.18.25-4.11,2.79-5.68,6.27-7.14,2.71-1.14,5-3.44,7.21-5.54a5.19,5.19,0,0,1,4.58-1.85,32.45,32.45,0,0,0,9.09-1.16c4.18-1,7,1.45,10.14,3.39a49.19,49.19,0,0,0,8.8,4.6c4.5,1.63,7.05,4.94,9.15,8.88.56,1,1.23,2,1.84,3l.91-.48c-1.77-3.88-3.38-7.85-5.34-11.63-3.86-7.4-10.4-12.3-17-17a59.39,59.39,0,0,0-30.26-11,6.49,6.49,0,0,0-2-.12c-10.52,2.51-21,4.47-30,11.65C399,172.09,394.08,182.87,392,195.36Zm30.87,7.28a5.55,5.55,0,0,1-.84,8.45c-.72-1.37-2.11-2.82-2-4.08C420.26,205.55,421.79,204.25,422.89,202.64Z"/><path class="cls-6" d="M450,308.55c4.58,3.09,9.77,5.57,15.68,2.67a11.08,11.08,0,0,0,6.65-11.12c-.22-5.66-3.15-10-7.39-11.48-4.56-1.73-8.59-2.86-13-.75C443.74,291.87,442.38,303.37,450,308.55Zm2.63-9.12c1.69-4.19,2.85-5.94,6.52-7.24,6.23-2.21,9.56-1.66,11.32,5.12a15,15,0,0,1,.3,5.14,9.12,9.12,0,0,1-6.72,8.2,10.26,10.26,0,0,1-10.68-2.59C450.53,305.32,451,302,452.66,299.43Z"/><path class="cls-6" d="M405.84,263.83A7.21,7.21,0,0,0,410,273.4c2.6.94,5.83-.69,7-3.5a6.87,6.87,0,0,0-4-9.16A5.43,5.43,0,0,0,405.84,263.83Zm3.1,2.15c.06-.28,2.08-.19,3.2-.2s2.16.05,3.54.09c1.42,2.46-.11,5.56-3.65,6-1,.12-2.79-.54-3.06-1.28A8.63,8.63,0,0,1,408.94,266Z"/><path class="cls-6" d="M288.76,413.46c-3.36,8.52.66,17.83,9,20.86,5.66,2,12.7-1.52,15.17-7.64a15,15,0,0,0-8.79-19.95A11.83,11.83,0,0,0,288.76,413.46Zm6.76,4.69c.14-.63,4.54-.42,7-.45s4.71.12,7.71.19c3.09,5.37-.25,12.12-7.95,13-2.19.25-6.08-1.19-6.68-2.79C294.48,425.12,294.84,421.38,295.52,418.15Z"/><path class="cls-5" d="M612.6,462.72c2.58-6.05-3.4-14.55-18.82-26.75a371.16,371.16,0,0,0-32.11-22.12c-.51.79-1,1.57-1.56,2.35-.41.61-.81,1.21-1.23,1.81,5.4,3.37,10.19,6.48,14.49,9.38C610,452.07,608.43,459.77,608,460.76c-.5,1.16-6.72,10-76.56-9q-9.24-2.5-20-5.71c-60.15-17.89-137.93-46.81-219-81.45C277,358,261.81,351.37,247,344.72q-10.52-4.7-20.79-9.41C194.89,321,165.35,306.75,138.44,293h0C118,282.54,99.07,272.37,82.12,262.7,80,261.52,78,260.35,76,259.21l-.53-.31h0C1.85,216.18,4.18,204.36,4.71,203.13s6.72-10,76.57,9l.37.1c.34-1.63.7-3.27,1.08-4.89l-.35-.09c-20.14-5.49-36.89-9.17-49.93-11C13,193.56,2.69,195.12.1,201.17s3.4,14.55,18.83,26.74q7.41,5.86,17.48,12.65,16.19,10.91,39,24.05l.55.31h0l3.69,2.12c17.72,10.1,37.55,20.73,59,31.68,26.76,13.62,56.08,27.73,87.05,41.88q10,4.54,20.19,9.11,21.84,9.78,44.54,19.47c81.27,34.7,159.24,63.7,219.56,81.64,6,1.81,11.87,3.47,17.42,5,21.45,5.92,39.16,9.88,52.84,11.78,18.11,2.52,28.27,1.35,31.68-3.71A6.53,6.53,0,0,0,612.6,462.72Z"/><path class="cls-6" d="M481.17,149.63c1.76,1.88,3.88,1.38,5.81.34,2.47-1.34,3.2-3.43,2.15-6.24-1.11,2.52-1.15,5.58-4.74,5.53-2,0-3-1-3.05-3.21,2.09-.84,5.54,0,5.53-4-1.9-1.09-3.71-1.29-5.38.76S479.47,147.82,481.17,149.63Z"/><path class="cls-6" d="M291,229.33c.38,2.72,2.43,4.11,6,3.78-1.71-1.93-4.16-3.49-2.09-6.17.62-.82,2-1.07,3.6-1.87-.87-1-2.31-1.28-3.95-.92A4.68,4.68,0,0,0,291,229.33Z"/><path class="cls-6" d="M463.27,299.46a25.25,25.25,0,0,0-1.91,4.52c-.11.53.79,1.27,1.23,1.92a21.85,21.85,0,0,0,2.09-3.81C464.85,301.58,464,300.71,463.27,299.46Z"/><circle class="cls-5" cx="537.59" cy="478.21" r="8"/><circle class="cls-5" cx="108.32" cy="93.49" r="10"/><circle class="cls-5" cx="9.67" cy="182.56" r="5"/><circle class="cls-5" cx="651.05" cy="420.84" r="4"/><circle class="cls-5" cx="584.62" cy="449.61" r="4"/><circle class="cls-7" cx="651.05" cy="420.84" r="7"/></svg>